<svg id="visual" viewBox="0 0 900 600" width="900" height="600" xmlns="http://www.w3.org/2000/svg" xmlns:xlink="http://www.w3.org/1999/xlink" version="1.1"><path d="M0 193L13.7 193C27.3 193 54.7 193 82 182C109.3 171 136.7 149 163.8 137C191 125 218 123 245.2 130C272.3 137 299.7 153 327 151C354.3 149 381.7 129 409 119C436.3 109 463.7 109 491 105C518.3 101 545.7 93 573 98C600.3 103 627.7 121 654.8 126C682 131 709 123 736.2 118C763.3 113 790.7 111 818 116C845.3 121 872.7 133 886.3 139L900 145L900 0L886.3 0C872.7 0 845.3 0 818 0C790.7 0 763.3 0 736.2 0C709 0 682 0 654.8 0C627.7 0 600.3 0 573 0C545.7 0 518.3 0 491 0C463.7 0 436.3 0 409 0C381.7 0 354.3 0 327 0C299.7 0 272.3 0 245.2 0C218 0 191 0 163.8 0C136.7 0 109.3 0 82 0C54.7 0 27.3 0 13.7 0L0 0Z" fill="#6198ff"></path><path d="M0 367L13.7 358C27.3 349 54.7 331 82 320C109.3 309 136.7 305 163.8 308C191 311 218 321 245.2 330C272.3 339 299.7 347 327 350C354.3 353 381.7 351 409 355C436.3 359 463.7 369 491 366C518.3 363 545.7 347 573 348C600.3 349 627.7 367 654.8 373C682 379 709 373 736.2 356C763.3 339 790.7 311 818 308C845.3 305 872.7 327 886.3 338L900 349L900 143L886.3 137C872.7 131 845.3 119 818 114C790.7 109 763.3 111 736.2 116C709 121 682 129 654.8 124C627.7 119 600.3 101 573 96C545.7 91 518.3 99 491 103C463.7 107 436.3 107 409 117C381.7 127 354.3 147 327 149C299.7 151 272.3 135 245.2 128C218 121 191 123 163.8 135C136.7 147 109.3 169 82 180C54.7 191 27.3 191 13.7 191L0 191Z" fill="#3c80ff"></path><path d="M0 457L13.7 443C27.3 429 54.7 401 82 389C109.3 377 136.7 381 163.8 384C191 387 218 389 245.2 395C272.3 401 299.7 411 327 419C354.3 427 381.7 433 409 441C436.3 449 463.7 459 491 458C518.3 457 545.7 445 573 440C600.3 435 627.7 437 654.8 436C682 435 709 431 736.2 415C763.3 399 790.7 371 818 365C845.3 359 872.7 375 886.3 383L900 391L900 347L886.3 336C872.7 325 845.3 303 818 306C790.7 309 763.3 337 736.2 354C709 371 682 377 654.8 371C627.7 365 600.3 347 573 346C545.7 345 518.3 361 491 364C463.7 367 436.3 357 409 353C381.7 349 354.3 351 327 348C299.7 345 272.3 337 245.2 328C218 319 191 309 163.8 306C136.7 303 109.3 307 82 318C54.7 329 27.3 347 13.7 356L0 365Z" fill="#0066ff"></path><path d="M0 535L13.7 537C27.3 539 54.7 543 82 537C109.3 531 136.7 515 163.8 514C191 513 218 527 245.2 527C272.3 527 299.7 513 327 515C354.3 517 381.7 535 409 545C436.3 555 463.7 557 491 554C518.3 551 545.7 543 573 541C600.3 539 627.7 543 654.8 544C682 545 709 543 736.2 531C763.3 519 790.7 497 818 494C845.3 491 872.7 507 886.3 515L900 523L900 389L886.3 381C872.7 373 845.3 357 818 363C790.7 369 763.3 397 736.2 413C709 429 682 433 654.8 434C627.7 435 600.3 433 573 438C545.7 443 518.3 455 491 456C463.7 457 436.3 447 409 439C381.7 431 354.3 425 327 417C299.7 409 272.3 399 245.2 393C218 387 191 385 163.8 382C136.7 379 109.3 375 82 387C54.7 399 27.3 427 13.7 441L0 455Z" fill="#0059dd"></path><path d="M0 601L13.7 601C27.3 601 54.7 601 82 601C109.3 601 136.7 601 163.8 601C191 601 218 601 245.2 601C272.3 601 299.7 601 327 601C354.3 601 381.7 601 409 601C436.3 601 463.7 601 491 601C518.3 601 545.7 601 573 601C600.3 601 627.7 601 654.8 601C682 601 709 601 736.2 601C763.3 601 790.7 601 818 601C845.3 601 872.7 601 886.3 601L900 601L900 521L886.3 513C872.7 505 845.3 489 818 492C790.7 495 763.3 517 736.2 529C709 541 682 543 654.8 542C627.7 541 600.3 537 573 539C545.7 541 518.3 549 491 552C463.7 555 436.3 553 409 543C381.7 533 354.3 515 327 513C299.7 511 272.3 525 245.2 525C218 525 191 511 163.8 512C136.7 513 109.3 529 82 535C54.7 541 27.3 537 13.7 535L0 533Z" fill="#004cbb"></path></svg>